<svg xmlns="http://www.w3.org/2000/svg" width="475" height="130" fill="none" xmlns:v="https://vecta.io/nano"><g clip-path="url(#B)"><g fill="#292929"><path d="M201.732 82.791h28.656v13.853H184.29V9.533h17.442v73.258zm103.907-22.214c0 2.496-.166 4.742-.499 6.739h-50.459c.416 4.992 2.16 8.902 5.233 11.731s6.853 4.243 11.338 4.243c6.479 0 11.088-2.787 13.829-8.362h18.813c-1.993 6.656-5.814 12.147-11.462 16.474-5.648 4.243-12.583 6.365-20.806 6.365-6.645 0-12.626-1.456-17.941-4.368-5.233-2.995-9.345-7.197-12.335-12.605-2.907-5.408-4.36-11.648-4.36-18.72 0-7.155 1.453-13.437 4.36-18.845s6.977-9.568 12.21-12.48 11.255-4.368 18.066-4.368c6.561 0 12.417 1.414 17.567 4.243a29.24 29.24 0 0 1 12.085 12.106c2.907 5.158 4.361 11.107 4.361 17.846zm-18.066-4.992c-.083-4.493-1.703-8.07-4.859-10.733-3.156-2.746-7.018-4.118-11.587-4.118-4.319 0-7.974 1.331-10.964 3.994-2.907 2.579-4.693 6.198-5.357 10.858h32.767zm26.312 6.24c0-6.989 1.37-13.187 4.111-18.595 2.825-5.408 6.604-9.568 11.338-12.48 4.818-2.912 10.175-4.368 16.072-4.368 5.15 0 9.635 1.04 13.456 3.12 3.904 2.08 7.019 4.701 9.344 7.862v-9.859h17.568v69.139h-17.568V86.535c-2.242 3.245-5.357 5.949-9.344 8.112-3.904 2.08-8.431 3.12-13.58 3.12-5.814 0-11.13-1.498-15.948-4.493-4.734-2.995-8.513-7.197-11.338-12.605-2.741-5.491-4.111-11.773-4.111-18.845zm54.321.25c0-4.243-.83-7.862-2.491-10.858-1.662-3.078-3.904-5.408-6.728-6.989-2.824-1.664-5.856-2.496-9.095-2.496s-6.23.79-8.971 2.371-4.984 3.91-6.728 6.989c-1.661 2.995-2.492 6.573-2.492 10.733s.831 7.821 2.492 10.982c1.744 3.078 3.987 5.45 6.728 7.114 2.824 1.664 5.814 2.496 8.971 2.496a18.32 18.32 0 0 0 9.095-2.371c2.824-1.664 5.066-3.994 6.728-6.989 1.661-3.078 2.491-6.739 2.491-10.982zm52.046-24.586c2.243-3.162 5.316-5.782 9.22-7.862 3.987-2.163 8.513-3.245 13.579-3.245 5.898 0 11.213 1.456 15.949 4.368 4.816 2.912 8.596 7.072 11.337 12.48 2.824 5.325 4.236 11.523 4.236 18.595s-1.412 13.354-4.236 18.845c-2.741 5.408-6.521 9.61-11.337 12.605-4.736 2.995-10.051 4.493-15.949 4.493-5.066 0-9.552-1.04-13.455-3.12-3.82-2.08-6.935-4.701-9.344-7.862v42.807h-17.443V27.505h17.443v9.984zm36.504 24.336c0-4.16-.872-7.738-2.615-10.733-1.662-3.078-3.904-5.408-6.728-6.989-2.741-1.581-5.732-2.371-8.972-2.371-3.156 0-6.145.832-8.969 2.496-2.741 1.581-4.985 3.91-6.728 6.989-1.662 3.078-2.492 6.698-2.492 10.858s.83 7.779 2.492 10.858c1.743 3.078 3.987 5.45 6.728 7.114 2.824 1.581 5.813 2.371 8.969 2.371 3.24 0 6.231-.832 8.972-2.496 2.824-1.664 5.066-4.035 6.728-7.114 1.743-3.078 2.615-6.739 2.615-10.982z"/></g><mask id="A" maskUnits="userSpaceOnUse" x="0" y="0" width="154" height="100"><path d="M153.142 0H0v99.667h153.142V0z" fill="#fff"/></mask><g mask="url(#A)"><path d="M137.96 68.797c0 21.95-26.743 30.87-59.949 30.87s-60.338-8.92-60.338-30.87 26.938-39.711 60.143-39.711 60.143 17.8 60.143 39.712z" fill="#4baf74"/><path d="M131.848 20.942C131.848 9.385 122.428 0 110.827 0c-6.539 0-12.378 2.986-16.233 7.64-5.255-1.163-10.86-1.823-16.661-1.823s-11.406.62-16.661 1.823C57.38 2.986 51.541 0 45.039 0c-11.6 0-21.021 9.385-21.021 20.942a20.83 20.83 0 0 0 2.764 10.393c-1.674 3.568-2.569 7.368-2.569 11.324 0 20.36 24.057 36.842 53.72 36.842s53.721-16.482 53.721-36.842c0-3.956-.896-7.756-2.569-11.324 1.751-3.064 2.763-6.593 2.763-10.393z" fill="#32da6d"/><path d="M43.366 32.576c7.095 0 12.846-5.73 12.846-12.798S50.46 6.98 43.366 6.98 30.52 12.71 30.52 19.778s5.752 12.798 12.846 12.798zm68.512 0c7.095 0 12.846-5.73 12.846-12.798S118.973 6.98 111.878 6.98s-12.846 5.73-12.846 12.798 5.752 12.798 12.846 12.798z" fill="#f1f1e8"/><path d="M36.514 98.115c2.764 0 4.944-2.404 4.633-5.119-1.129-9.617-5.917-30.443-26.977-42.969-28.028-16.676-5.839 40.72-5.839 40.72l-5.8 3.335c-1.946 1.125-1.129 4.033 1.09 4.033h32.894zm83.657 0c-2.492 0-4.439-2.404-4.166-5.119.973-9.578 5.333-30.443 24.33-42.969 25.342-16.676 5.294 40.72 5.294 40.72l5.255 3.335c1.752 1.125 1.012 4.033-.973 4.033h-29.74z" fill="#32da6d"/><path d="M43.366 22.105c1.29 0 2.336-1.042 2.336-2.327s-1.046-2.327-2.336-2.327-2.336 1.042-2.336 2.327 1.046 2.327 2.336 2.327zm68.513 0a2.33 2.33 0 0 0 2.335-2.327 2.33 2.33 0 0 0-2.335-2.327c-1.29 0-2.337 1.042-2.337 2.327s1.047 2.327 2.337 2.327z" fill="#0d0d0d"/></g></g><defs><clipPath id="B"><path fill="#fff" d="M0 0h475v130H0z"/></clipPath></defs></svg>