<svg width="166" height="166" viewBox="0 0 166 166" fill="none" xmlns="http://www.w3.org/2000/svg">
<g clip-path="url(#clip0_782_2)">
<rect width="166" height="166" fill="#092511"/>
<path d="M60.3457 84.9436C60.3457 91.2698 52.6249 93.8406 43.0386 93.8406C33.4523 93.8406 25.6191 91.2698 25.6191 84.9436C25.6191 78.6174 33.3961 73.4983 42.9824 73.4983C52.5687 73.4983 60.3457 78.6286 60.3457 84.9436Z" fill="#24A95A"/>
<path d="M58.5826 71.1543C58.5826 67.8235 55.8629 65.1187 52.5139 65.1187C50.7723 65.1187 49.2028 65.8509 48.0966 67.0172C47.9252 67.1979 47.6748 67.2859 47.4308 67.2367C46.0294 66.9537 44.5468 66.7952 43.0175 66.7952C41.4882 66.7952 40.0059 66.9444 38.6046 67.2341C38.3603 67.2847 38.1088 67.1981 37.9364 67.0177C36.8213 65.8511 35.2525 65.1187 33.521 65.1187C30.172 65.1187 27.4523 67.8235 27.4523 71.1543C27.4523 72.1257 27.6822 73.0357 28.087 73.845C28.1839 74.0389 28.1936 74.2658 28.1098 74.4656C27.7171 75.4014 27.5085 76.3894 27.5085 77.4134C27.5085 83.2814 34.4538 88.0317 43.0175 88.0317C51.5811 88.0317 58.5264 83.2814 58.5264 77.4134C58.5264 76.3894 58.3178 75.4014 57.9251 74.4656C57.8413 74.2658 57.851 74.0389 57.948 73.845C58.3527 73.0357 58.5826 72.1257 58.5826 71.1543Z" fill="#32DA6D"/>
<path d="M31.0577 93.3851C31.8556 93.3851 32.485 92.6921 32.3951 91.9097C32.0692 89.1378 30.6868 83.1357 24.6069 79.5255C17.942 75.5668 21.1129 86.0918 22.4383 89.9264C22.7064 90.702 22.3955 91.5632 21.6838 91.9718L21.2466 92.2227C20.6847 92.5468 20.9207 93.3851 21.5613 93.3851H31.0577Z" fill="#32DA6D"/>
<path d="M55.2113 93.3851C54.492 93.3851 53.9301 92.6921 54.0088 91.9097C54.2897 89.149 55.5484 83.1357 61.0327 79.5255C67.1057 75.5361 64.1498 86.2561 62.9698 90.0145C62.7384 90.7517 63.0232 91.5542 63.676 91.9678L64.0783 92.2227C64.5841 92.5468 64.3705 93.3851 63.7974 93.3851H55.2113Z" fill="#32DA6D"/>
<path d="M33.0258 74.5027C35.074 74.5027 36.7345 72.8514 36.7345 70.8143C36.7345 68.7772 35.074 67.1259 33.0258 67.1259C30.9776 67.1259 29.3171 68.7772 29.3171 70.8143C29.3171 72.8514 30.9776 74.5027 33.0258 74.5027Z" fill="white"/>
<path d="M52.8112 74.5027C54.8594 74.5027 56.5198 72.8514 56.5198 70.8143C56.5198 68.7772 54.8594 67.1259 52.8112 67.1259C50.7629 67.1259 49.1025 68.7772 49.1025 70.8143C49.1025 72.8514 50.7629 74.5027 52.8112 74.5027Z" fill="white"/>
<path d="M33.0308 73.0203C34.2527 73.0203 35.2432 72.0298 35.2432 70.8079C35.2432 69.586 34.2527 68.5955 33.0308 68.5955C31.8089 68.5955 30.8184 69.586 30.8184 70.8079C30.8184 72.0298 31.8089 73.0203 33.0308 73.0203Z" fill="#092511"/>
<path d="M52.8162 73.0203C54.0381 73.0203 55.0286 72.0298 55.0286 70.8079C55.0286 69.586 54.0381 68.5955 52.8162 68.5955C51.5943 68.5955 50.6038 69.586 50.6038 70.8079C50.6038 72.0298 51.5943 73.0203 52.8162 73.0203Z" fill="#092511"/>
<path d="M47.9269 79.3676C48.4754 79.4148 48.89 79.9015 48.7519 80.4344C48.6403 80.8651 48.4804 81.283 48.2745 81.6798C47.9152 82.3725 47.423 82.9876 46.826 83.49C46.229 83.9924 45.5388 84.3724 44.795 84.6081C44.0511 84.8438 43.2681 84.9307 42.4907 84.8638C41.7133 84.7969 40.9566 84.5776 40.264 84.2183C39.5713 83.859 38.9562 83.3668 38.4538 82.7698C37.9513 82.1727 37.5714 81.4826 37.3357 80.7388C37.167 80.2066 37.0745 79.6543 37.0601 79.0984C37.0505 78.7315 37.3764 78.46 37.742 78.4914L47.9269 79.3676Z" fill="#092511"/>
<path d="M76.9636 90.5727C76.9636 92.0774 75.7438 93.2972 74.2391 93.2972C72.7344 93.2972 71.5146 92.0774 71.5146 90.5727L71.5147 69.3432C71.5147 67.8386 72.7344 66.6188 74.2391 66.6188C75.7438 66.6188 76.9636 67.8386 76.9636 69.3432L76.9636 87.9036V90.5727Z" fill="white"/>
<path d="M74.2329 93.3399C72.7316 93.3399 71.5146 92.123 71.5146 90.6218C71.5146 89.1205 72.7316 87.9036 74.2328 87.9036H76.9636H82.9864C84.4876 87.9036 85.7046 89.1205 85.7046 90.6218C85.7046 92.123 84.4876 93.3399 82.9864 93.3399H74.2329Z" fill="white"/>
<path d="M94.8341 93.9139C93.065 93.9139 91.4845 93.5129 90.0928 92.7109C88.7247 91.9089 87.6396 90.8121 86.8376 89.4204C86.0592 88.0051 85.67 86.3893 85.67 84.5729C85.67 82.7331 86.0474 81.1173 86.8022 79.7255C87.5806 78.3102 88.6539 77.2016 90.022 76.3996C91.3902 75.5976 92.9588 75.1966 94.7279 75.1966C96.5914 75.1966 98.1955 75.5858 99.54 76.3642C100.885 77.119 101.922 78.2041 102.654 79.6194C103.385 81.0111 103.751 82.6741 103.751 84.6083C103.751 85.3715 103.134 85.9911 102.371 85.9947L90.2563 86.051C89.3134 86.0554 88.5523 85.2817 88.5722 84.3391C88.5914 83.427 89.3362 82.6977 90.2485 82.6977H95.8287C97.214 82.6977 98.4362 81.3669 97.3817 80.4686C96.7448 79.9025 95.872 79.6194 94.7633 79.6194C93.8434 79.6194 93.0886 79.7963 92.4988 80.1501C91.9327 80.504 91.5081 81.0583 91.2251 81.8131C90.942 82.5443 90.8005 83.4879 90.8005 84.6437C90.8005 86.2949 91.1307 87.5215 91.7912 88.3235C92.4753 89.1019 93.5249 89.4911 94.9402 89.4911C95.9781 89.4911 96.8391 89.3142 97.5232 88.9604C97.5511 88.9459 97.5787 88.9312 97.6058 88.9163C98.6163 88.3601 99.6236 87.4743 100.777 87.4743C102.376 87.4743 103.634 88.9653 102.751 90.2989C102.281 91.0089 101.671 91.636 100.92 92.1802C99.2923 93.336 97.2637 93.9139 94.8341 93.9139Z" fill="white"/>
<path d="M111.162 93.8C109.299 93.8 107.812 93.2929 106.704 92.2786C105.619 91.2407 105.076 89.8608 105.076 88.1388C105.076 86.5112 105.631 85.2139 106.739 84.2467C107.871 83.2796 109.499 82.7135 111.622 82.5484L116.293 82.1813C116.453 82.1688 116.576 82.0359 116.576 81.8761C116.576 81.2864 116.458 80.8028 116.222 80.4254C115.986 80.0244 115.644 79.7296 115.196 79.5409C114.771 79.3286 114.229 79.2224 113.568 79.2224C112.412 79.2224 111.528 79.4347 110.914 79.8593C109.961 80.5457 109.077 81.6992 107.903 81.6992H107.765C106.515 81.6992 105.443 80.6524 105.868 79.4762C106.032 79.021 106.252 78.5944 106.527 78.1963C107.211 77.2056 108.178 76.439 109.428 75.8965C110.702 75.3539 112.176 75.0827 113.851 75.0827C115.573 75.0827 117.024 75.3893 118.203 76.0026C119.406 76.6159 120.314 77.5123 120.928 78.6917C121.565 79.8711 121.883 81.31 121.883 83.0084V90.7528C121.883 92.1817 120.725 93.34 119.296 93.34H117.489C117.248 93.34 117.044 93.1645 117.008 92.9271C116.933 92.427 115.94 92.2092 115.534 92.5107C115.289 92.6922 115.012 92.8625 114.7 93.0216C113.662 93.5406 112.483 93.8 111.162 93.8ZM113.073 89.7664C114.111 89.7664 114.96 89.5187 115.62 89.0234C116.281 88.5044 116.611 87.7378 116.611 86.7235C116.611 86.2103 116.171 85.8077 115.659 85.8536L113.851 86.0159C112.672 86.1102 111.834 86.3107 111.339 86.6174C110.867 86.9004 110.631 87.325 110.631 87.8911C110.631 88.528 110.832 88.9998 111.233 89.3064C111.634 89.6131 112.247 89.7664 113.073 89.7664Z" fill="white"/>
<path d="M126.832 101.832C125.327 101.832 124.107 100.612 124.107 99.1074V78.3815C124.107 76.8723 125.331 75.6488 126.84 75.6488H128.728C129.02 75.6488 129.266 75.8651 129.304 76.1543C129.376 76.7001 130.19 76.909 130.62 76.566C130.969 76.288 131.369 76.0412 131.821 75.8257C132.859 75.3303 134.003 75.0827 135.253 75.0827C136.904 75.0827 138.355 75.4483 139.605 76.1795C140.855 76.9108 141.834 77.9605 142.542 79.3286C143.249 80.6731 143.603 82.3007 143.603 84.2114C143.603 86.0748 143.273 87.7378 142.613 89.2003C141.976 90.6392 141.032 91.7714 139.782 92.597C138.555 93.4226 137.057 93.8354 135.288 93.8354C134.062 93.8354 132.93 93.6231 131.892 93.1985C131.017 92.8406 129.556 93.5038 129.556 94.4492V99.195C129.556 100.651 128.376 101.832 126.919 101.832H126.832ZM129.592 84.4944C129.592 85.3672 129.769 86.1456 130.122 86.8297C130.5 87.4901 131.007 88.0091 131.644 88.3865C132.304 88.7403 133.059 88.9172 133.908 88.9172C134.781 88.9172 135.524 88.7285 136.138 88.3511C136.774 87.9737 137.258 87.4548 137.588 86.7943C137.942 86.1338 138.119 85.3672 138.119 84.4944C138.119 83.6217 137.942 82.855 137.588 82.1946C137.258 81.5341 136.774 81.0151 136.138 80.6377C135.524 80.2603 134.781 80.0716 133.908 80.0716C133.059 80.0716 132.304 80.2603 131.644 80.6377C131.007 80.9916 130.5 81.4987 130.122 82.1592C129.769 82.8196 129.592 83.5981 129.592 84.4944Z" fill="white"/>
</g>
<defs>
<clipPath id="clip0_782_2">
<rect width="166" height="166" fill="white"/>
</clipPath>
</defs>
</svg>
