<?xml version="1.0" encoding="UTF-8"?><svg id="Layer_1" xmlns="http://www.w3.org/2000/svg" width="1200" height="681.11" viewBox="0 0 1200 681.11"><defs><style>.cls-1{fill:#fff;}.cls-2{fill:#f30;}</style></defs><polygon class="cls-2" points="779.35 161.06 834.79 216.17 917.95 216.17 917.95 382.08 973.29 437.93 973.29 216.32 918.34 161.06 779.35 161.06"/><polygon class="cls-2" points="1195.86 244.15 1056.39 244.15 1056.39 77.58 1001.04 21.52 1001.04 244 1056.86 299.26 1139.99 299.26 1195.86 244.15"/><polygon class="cls-2" points="906.74 258.83 906.74 258.83 906.74 258.83 906.74 258.83"/><path class="cls-1" d="m59.6,355.16v221.59H4.14v-277.02h221.22v277.02h-55.46v-221.59H59.6Z"/><path class="cls-1" d="m336.2,299.73v277.02h-55.46v-277.02h55.46Z"/><path class="cls-1" d="m447.2,355.37v221.38h-55.51v-277.02h221.95v277.02h-55.51v-221.38h-110.94Z"/><path class="cls-1" d="m835.01,299.73v277.02h-55.46v-277.02h55.46Z"/><polygon class="cls-1" points="668.36 299.87 723.89 299.87 723.89 604.08 668.31 659.58 613.47 659.58 613.47 604.05 668.36 604.05 668.36 299.87"/></svg>